<?xml version="1.0" standalone="no"?>
<!DOCTYPE svg PUBLIC "-//W3C//DTD SVG 20010904//EN"
 "http://www.w3.org/TR/2001/REC-SVG-20010904/DTD/svg10.dtd">
<svg version="1.0" xmlns="http://www.w3.org/2000/svg"
 width="1200.000000pt" height="400.000000pt" viewBox="0 0 1200.000000 400.000000"
 preserveAspectRatio="xMidYMid meet">

<g transform="translate(0.000000,400.000000) scale(0.100000,-0.100000)"
fill="#000000" stroke="none">
<path d="M400 1995 l0 -1605 5595 0 5595 0 0 1605 0 1605 -5595 0 -5595 0 0
-1605z m11120 5 l0 -1530 -5525 0 -5525 0 0 1530 0 1530 5525 0 5525 0 0
-1530z"/>
<path d="M10676 177 c-29 -24 -29 -54 0 -43 11 4 14 -5 14 -39 0 -42 2 -45 25
-45 26 0 26 1 23 72 -3 83 -15 93 -62 55z"/>
<path d="M10785 187 c-22 -17 -11 -40 16 -32 29 10 24 -17 -11 -50 -45 -43
-39 -55 25 -55 42 0 55 3 55 15 0 8 -9 15 -20 15 -11 0 -20 4 -20 8 0 5 9 17
20 27 50 45 -10 112 -65 72z"/>
<path d="M10907 187 c-26 -18 -33 -81 -13 -112 21 -31 70 -35 86 -6 17 33 12
89 -10 111 -23 23 -39 25 -63 7z m43 -60 c0 -12 -5 -29 -10 -37 -7 -11 -10 -3
-10 28 0 26 4 41 10 37 6 -3 10 -16 10 -28z"/>
<path d="M11020 180 c-22 -22 -27 -78 -10 -111 16 -29 65 -25 86 6 30 45 2
125 -43 125 -7 0 -22 -9 -33 -20z m40 -61 c0 -24 -4 -38 -10 -34 -17 10 -11
75 7 75 2 0 3 -18 3 -41z"/>
<path d="M11375 153 c-40 -55 -41 -77 -2 -81 15 -2 27 -8 27 -13 0 -5 8 -9 18
-9 23 0 54 51 35 57 -8 3 -13 22 -13 49 0 59 -20 58 -65 -3z"/>
<path d="M11493 192 c-31 -20 -37 -96 -10 -129 12 -16 59 -17 75 -1 7 7 12 33
12 59 0 38 -5 51 -22 63 -25 18 -37 19 -55 8z m37 -66 c0 -19 -4 -38 -10 -41
-6 -4 -10 10 -10 34 0 23 5 41 10 41 6 0 10 -15 10 -34z"/>
<path d="M11607 187 c-26 -18 -33 -81 -13 -112 21 -31 70 -35 86 -6 17 33 12
89 -10 111 -23 23 -39 25 -63 7z m43 -60 c0 -12 -5 -29 -10 -37 -7 -11 -10 -3
-10 28 0 26 4 41 10 37 6 -3 10 -16 10 -28z"/>
<path d="M11811 161 c-7 -5 -22 -6 -32 -4 -17 5 -19 -1 -19 -76 0 -74 2 -81
20 -81 15 0 20 7 20 25 0 20 5 25 25 25 31 0 51 36 41 74 -7 29 -36 48 -55 37z
m9 -56 c0 -14 -4 -25 -10 -25 -5 0 -10 11 -10 25 0 14 5 25 10 25 6 0 10 -11
10 -25z"/>
<path d="M11170 153 c0 -5 7 -17 15 -27 13 -17 13 -22 0 -42 -8 -13 -15 -26
-15 -29 0 -10 36 -5 49 7 11 10 14 11 18 1 3 -7 16 -13 29 -13 25 0 25 0 8 29
-16 28 -16 31 0 55 16 25 16 26 -7 26 -13 0 -28 -5 -35 -12 -9 -9 -12 -9 -12
0 0 7 -11 12 -25 12 -14 0 -25 -3 -25 -7z"/>
<path d="M11880 153 c0 -5 7 -17 15 -27 13 -17 13 -22 0 -42 -8 -13 -15 -26
-15 -29 0 -10 36 -5 49 7 11 10 14 11 18 1 3 -7 16 -13 29 -13 25 0 25 0 8 29
-16 28 -16 31 0 55 16 25 16 26 -7 26 -13 0 -28 -5 -35 -12 -9 -9 -12 -9 -12
0 0 7 -11 12 -25 12 -14 0 -25 -3 -25 -7z"/>
</g>
</svg>
